<?xml version="1.0" encoding="UTF-8" standalone="no"?>
<!-- Created with Inkscape (http://www.inkscape.org/) -->

<svg
   width="54.976624"
   height="64.187233"
   viewBox="0 0 14.545899 16.982873"
   version="1.1"
   id="svg5"
   xml:space="preserve"
   xmlns="http://www.w3.org/2000/svg"
   xmlns:svg="http://www.w3.org/2000/svg"><defs
     id="defs2"><filter
       style="color-interpolation-filters:sRGB"
       id="filter77126"
       x="-0.021099292"
       y="-0.033866316"
       width="1.0421987"
       height="1.0677326"><feGaussianBlur
         stdDeviation="0.21343722"
         id="feGaussianBlur77128" /></filter></defs><g
     id="layer2"
     transform="translate(2143.9173,107.99736)"><g
       id="g81855"
       transform="matrix(0.52849551,0,0,0.52849551,-1114.8161,-41.689475)"><path
         style="fill:#302309;fill-opacity:1;stroke-width:3;stroke-linecap:round"
         id="path81843"
         d="m -2039.7663,-102.27321 c -12.9585,7.481565 -12.9585,7.481565 -12.9585,-7.48156 0,-14.96312 0,-14.96312 12.9585,-7.48156 12.9584,7.48156 12.9584,7.48156 0,14.96312 z"
         transform="matrix(1.2136874,0,0,1.2866261,544.13832,31.933542)" /><path
         style="fill:#6b5027;fill-opacity:1;stroke-width:3;stroke-linecap:round"
         id="path81845"
         d="m -2039.7663,-102.27321 c -12.9585,7.481565 -12.9585,7.481565 -12.9585,-7.48156 0,-14.96312 0,-14.96312 12.9585,-7.48156 12.9584,7.48156 12.9584,7.48156 0,14.96312 z"
         transform="matrix(1.1859035,0,0,1.2665993,487.20913,29.250548)" /><path
         style="fill:#91764c;fill-opacity:1;stroke-width:3;stroke-linecap:round"
         id="path81847"
         d="m -2039.7663,-102.27321 c -12.9585,7.481565 -12.9585,7.481565 -12.9585,-7.48156 0,-14.96312 0,-14.96312 12.9585,-7.48156 12.9584,7.48156 12.9584,7.48156 0,14.96312 z"
         transform="matrix(1.1031018,0,0,1.1575429,317.92831,17.448427)" /><path
         style="fill:#fce3bd;fill-opacity:1;stroke-width:3;stroke-linecap:round"
         id="path81849"
         d="m -2039.7663,-102.27321 c -12.9585,7.481565 -12.9585,7.481565 -12.9585,-7.48156 0,-14.96312 0,-14.96312 12.9585,-7.48156 12.9584,7.48156 12.9584,7.48156 0,14.96312 z"
         transform="matrix(1.0707786,0,0,1.0707786,252.09833,7.7682859)" /><path
         id="path81851"
         style="opacity:0.700935;fill:#ffffff;fill-opacity:1;stroke-width:3.21234;stroke-linecap:round;filter:url(#filter77126)"
         d="m -1943.2325,-123.02608 c -2.6812,0.10063 -2.6816,4.00872 -2.6816,13.27154 0,0.65817 0,1.24744 0,1.85209 0.023,-14.11506 0.5674,-13.84139 13.8731,-6.15932 4.862,2.80704 8.0181,4.63014 9.4727,6.15932 2.6975,-2.83514 -0.4588,-4.65927 -9.4727,-9.86348 -5.8537,-3.37969 -9.2376,-5.33358 -11.1941,-5.26015 z" /><path
         id="path81853"
         style="opacity:0.700935;fill:#ffffff;fill-opacity:1;stroke-width:3.21234;stroke-linecap:round;filter:url(#filter77126)"
         d="m -1943.2325,-123.02608 c -2.6812,0.10063 -2.6816,4.00872 -2.6816,13.27154 0,0.65817 0,1.24744 0,1.85209 0.023,-14.11506 0.5674,-13.84139 13.8731,-6.15932 4.862,2.80704 8.0181,4.63014 9.4727,6.15932 2.6975,-2.83514 -0.4588,-4.65927 -9.4727,-9.86348 -5.8537,-3.37969 -9.2376,-5.33358 -11.1941,-5.26015 z" /></g></g></svg>
