<svg height="64.187233" viewBox="0 0 14.545899 16.982873" width="54.976624" xmlns="http://www.w3.org/2000/svg" xmlns:xlink="http://www.w3.org/1999/xlink"><filter id="a" color-interpolation-filters="sRGB" height="1.067733" width="1.042199" x="-.021099" y="-.033866"><feGaussianBlur stdDeviation=".21343722"/></filter><g stroke-linecap="round" transform="matrix(.52849551 0 0 .52849551 1029.1012 66.307885)"><g stroke-width="3"><path d="m-2039.7663-102.27321c-12.9585 7.481565-12.9585 7.481565-12.9585-7.48156 0-14.96312 0-14.96312 12.9585-7.48156 12.9584 7.48156 12.9584 7.48156 0 14.96312z" fill="#302309" transform="matrix(1.2136874 0 0 1.2866261 544.13832 31.933542)"/><path d="m-2039.7663-102.27321c-12.9585 7.481565-12.9585 7.481565-12.9585-7.48156 0-14.96312 0-14.96312 12.9585-7.48156 12.9584 7.48156 12.9584 7.48156 0 14.96312z" fill="#6b5027" transform="matrix(1.1859035 0 0 1.2665993 487.20913 29.250548)"/><path d="m-2039.7663-102.27321c-12.9585 7.481565-12.9585 7.481565-12.9585-7.48156 0-14.96312 0-14.96312 12.9585-7.48156 12.9584 7.48156 12.9584 7.48156 0 14.96312z" fill="#91764c" transform="matrix(1.1031018 0 0 1.1575429 317.92831 17.448427)"/><path d="m-2039.7663-102.27321c-12.9585 7.481565-12.9585 7.481565-12.9585-7.48156 0-14.96312 0-14.96312 12.9585-7.48156 12.9584 7.48156 12.9584 7.48156 0 14.96312z" fill="#fce3bd" transform="matrix(1.0707786 0 0 1.0707786 252.09833 7.768286)"/></g><g fill="#fff" stroke-width="3.21234"><path d="m-1943.2325-123.02608c-2.6812.10063-2.6816 4.00872-2.6816 13.27154v1.85209c.023-14.11506.5674-13.84139 13.8731-6.15932 4.862 2.80704 8.0181 4.63014 9.4727 6.15932 2.6975-2.83514-.4588-4.65927-9.4727-9.86348-5.8537-3.37969-9.2376-5.33358-11.1941-5.26015z" filter="url(#a)" opacity=".700935"/><path d="m-1943.2325-123.02608c-2.6812.10063-2.6816 4.00872-2.6816 13.27154v1.85209c.023-14.11506.5674-13.84139 13.8731-6.15932 4.862 2.80704 8.0181 4.63014 9.4727 6.15932 2.6975-2.83514-.4588-4.65927-9.4727-9.86348-5.8537-3.37969-9.2376-5.33358-11.1941-5.26015z" filter="url(#a)" opacity=".700935"/></g></g></svg>